<svg width="79" height="79" viewBox="0 0 79 79" fill="none" xmlns="http://www.w3.org/2000/svg">
<mask id="mask0_1030_1873" style="mask-type:alpha" maskUnits="userSpaceOnUse" x="0" y="0" width="79" height="79">
<path fill-rule="evenodd" clip-rule="evenodd" d="M0 0H78.5081V78.5077H0V0Z" fill="white"/>
</mask>
<g mask="url(#mask0_1030_1873)">
<path fill-rule="evenodd" clip-rule="evenodd" d="M78.5084 39.2538C78.5084 60.933 60.9337 78.5077 39.2545 78.5077C17.5747 78.5077 0 60.933 0 39.2538C0 17.5747 17.5747 0 39.2545 0C60.9337 0 78.5084 17.5747 78.5084 39.2538" fill="#2EB716"/>
</g>
<path fill-rule="evenodd" clip-rule="evenodd" d="M56.1371 22.5083C54.7936 22.4911 53.6263 22.9598 52.6357 23.9136L28.8279 47.3169L21.5976 39.1155C20.674 38.1102 19.5404 37.5737 18.197 37.5058C16.8359 37.4208 15.6523 37.8466 14.6442 38.7833C13.6198 39.7028 13.0738 40.8445 13.0069 42.207C12.94 43.5867 13.3599 44.7956 14.2665 45.8344L24.9228 57.869C25.5111 58.5499 26.2416 59.0186 27.1152 59.2744C27.9719 59.5466 28.8448 59.5809 29.7345 59.3765C30.6081 59.1715 31.3641 58.7464 32.0023 58.0983L59.5131 31.0934C60.4874 30.1053 60.9826 28.9292 60.9996 27.5667C61.0165 26.2042 60.5543 25.0211 59.6138 24.0151C58.6733 23.0105 57.5144 22.5083 56.1371 22.5083" fill="white"/>
</svg>
