<svg width="42" height="26" viewBox="0 0 42 26" fill="none" xmlns="http://www.w3.org/2000/svg">
<mask id="mask0_1030_1622" style="mask-type:alpha" maskUnits="userSpaceOnUse" x="0" y="0" width="42" height="26">
<path fill-rule="evenodd" clip-rule="evenodd" d="M0 0H42V26H0V0Z" fill="white"/>
</mask>
<g mask="url(#mask0_1030_1622)">
<path fill-rule="evenodd" clip-rule="evenodd" d="M42.0001 7.9419V3.26978C42.0001 1.46379 40.4927 0 38.6329 0H3.3672C1.5074 0 0 1.46379 0 3.26978V7.9419C2.87672 7.9419 5.20831 10.206 5.20831 12.9995C5.20831 15.793 2.87672 18.0585 0 18.0585V22.7306C0 24.5366 1.5074 26.0004 3.3672 26.0004H38.6329C40.4927 26.0004 42.0001 24.5366 42.0001 22.7306V18.0585C39.1234 18.0585 36.7904 15.793 36.7904 12.9995C36.7904 10.206 39.1234 7.9419 42.0001 7.9419" fill="#333333"/>
</g>
<path fill-rule="evenodd" clip-rule="evenodd" d="M15 5.1974C14.0051 5.1974 13.1978 6.00604 13.1978 6.99927C13.1978 7.99396 14.0051 8.8026 15 8.8026C15.9949 8.8026 16.8022 7.99396 16.8022 6.99927C16.8022 6.00604 15.9949 5.1974 15 5.1974M15 11C12.7934 11 11 9.20546 11 6.99927C11 4.79454 12.7934 3 15 3C17.2066 3 19 4.79454 19 6.99927C19 9.20546 17.2066 11 15 11" fill="#FDB92C"/>
<path fill-rule="evenodd" clip-rule="evenodd" d="M15.0097 20C14.7511 20 14.4926 19.9017 14.2959 19.7037C13.9014 19.3091 13.9014 18.6708 14.2959 18.2762L24.2765 8.29593C24.6711 7.90136 25.3095 7.90136 25.7041 8.29593C26.0986 8.69051 26.0986 9.32884 25.7041 9.72342L15.7235 19.7037C15.5269 19.9017 15.2683 20 15.0097 20" fill="#FDB92C"/>
<path fill-rule="evenodd" clip-rule="evenodd" d="M26 17.1974C25.0051 17.1974 24.1978 18.006 24.1978 18.9993C24.1978 19.994 25.0051 20.8026 26 20.8026C26.9949 20.8026 27.8022 19.994 27.8022 18.9993C27.8022 18.006 26.9949 17.1974 26 17.1974M26 23C23.7934 23 22 21.2055 22 18.9993C22 16.7945 23.7934 15 26 15C28.2066 15 30 16.7945 30 18.9993C30 21.2055 28.2066 23 26 23" fill="#FDB92C"/>
</svg>
